<?xml version="1.0" encoding="UTF-8"?>
<!DOCTYPE svg
PUBLIC "-//W3C//DTD SVG 1.1//EN"
       "http://www.w3.org/Graphics/SVG/1.1/DTD/svg11.dtd">
<svg viewBox="106 44 834 877" width="728px" height="833px" xmlns="http://www.w3.org/2000/svg" version="1.1">
   <line x1="696" y1="109" x2="686" y2="109" style="stroke:#0bf;stroke-width:1;"/>
   <line x1="521" y1="107" x2="511" y2="107" style="stroke:#0bf;stroke-width:1;"/>
   <line x1="686" y1="109" x2="521" y2="107" style="stroke:#0bf;stroke-width:1;"/>
   <line x1="688.5" y1="109" x2="692.03553390593" y2="112.53553390593" style="stroke:#0bf;stroke-width:2;"/>
   <line x1="688.5" y1="109" x2="692.03553390593" y2="105.46446609407" style="stroke:#0bf;stroke-width:2;"/>
   <line x1="516" y1="107" x2="519.53553390593" y2="110.53553390593" style="stroke:#0bf;stroke-width:2;"/>
   <line x1="516" y1="107" x2="519.53553390593" y2="103.46446609407" style="stroke:#0bf;stroke-width:2;"/>
   <line x1="696" y1="129" x2="686" y2="129" style="stroke:#c00;stroke-width:1;"/>
   <line x1="684" y1="390" x2="694" y2="390" style="stroke:#c00;stroke-width:1;"/>
   <line x1="686" y1="129" x2="684" y2="390" style="stroke:#c00;stroke-width:1;"/>
   <line x1="688.5" y1="129" x2="692.03553390593" y2="132.53553390593" style="stroke:#c00;stroke-width:2;"/>
   <line x1="688.5" y1="129" x2="692.03553390593" y2="125.46446609407" style="stroke:#c00;stroke-width:2;"/>
   <line x1="689" y1="390" x2="685.46446609407" y2="393.53553390593" style="stroke:#c00;stroke-width:2;"/>
   <line x1="689" y1="390" x2="685.46446609407" y2="386.46446609407" style="stroke:#c00;stroke-width:2;"/>
   <line x1="696" y1="149" x2="686" y2="149" style="stroke:#b0b;stroke-width:1;"/>
   <line x1="683" y1="274" x2="693" y2="274" style="stroke:#b0b;stroke-width:1;"/>
   <line x1="686" y1="149" x2="683" y2="274" style="stroke:#b0b;stroke-width:1;"/>
   <line x1="688.5" y1="149" x2="692.03553390593" y2="152.53553390593" style="stroke:#b0b;stroke-width:2;"/>
   <line x1="688.5" y1="149" x2="692.03553390593" y2="145.46446609407" style="stroke:#b0b;stroke-width:2;"/>
   <line x1="688" y1="274" x2="684.46446609407" y2="277.53553390593" style="stroke:#b0b;stroke-width:2;"/>
   <line x1="688" y1="274" x2="684.46446609407" y2="270.46446609407" style="stroke:#b0b;stroke-width:2;"/>
   <line x1="129" y1="549" x2="119" y2="549" style="stroke:#0bf;stroke-width:1;"/>
   <line x1="111" y1="101" x2="121" y2="101" style="stroke:#0bf;stroke-width:1;"/>
   <line x1="119" y1="549" x2="111" y2="101" style="stroke:#0bf;stroke-width:1;"/>
   <line x1="121.5" y1="549" x2="125.03553390593" y2="552.53553390593" style="stroke:#0bf;stroke-width:2;"/>
   <line x1="121.5" y1="549" x2="125.03553390593" y2="545.46446609407" style="stroke:#0bf;stroke-width:2;"/>
   <line x1="116" y1="101" x2="112.46446609407" y2="104.53553390593" style="stroke:#0bf;stroke-width:2;"/>
   <line x1="116" y1="101" x2="112.46446609407" y2="97.464466094067" style="stroke:#0bf;stroke-width:2;"/>
   <line x1="123" y1="333" x2="113" y2="333" style="stroke:#0b0;stroke-width:1;"/>
   <line x1="111" y1="101" x2="121" y2="101" style="stroke:#0b0;stroke-width:1;"/>
   <line x1="113" y1="333" x2="111" y2="101" style="stroke:#0b0;stroke-width:1;"/>
   <line x1="115.5" y1="333" x2="119.03553390593" y2="336.53553390593" style="stroke:#0b0;stroke-width:2;"/>
   <line x1="115.5" y1="333" x2="119.03553390593" y2="329.46446609407" style="stroke:#0b0;stroke-width:2;"/>
   <line x1="116" y1="101" x2="112.46446609407" y2="104.53553390593" style="stroke:#0b0;stroke-width:2;"/>
   <line x1="116" y1="101" x2="112.46446609407" y2="97.464466094067" style="stroke:#0b0;stroke-width:2;"/>
   <line x1="122" y1="752" x2="112" y2="752" style="stroke:#333;stroke-width:1;"/>
   <line x1="111" y1="101" x2="121" y2="101" style="stroke:#333;stroke-width:1;"/>
   <line x1="112" y1="752" x2="111" y2="101" style="stroke:#333;stroke-width:1;"/>
   <line x1="114.5" y1="752" x2="118.03553390593" y2="755.53553390593" style="stroke:#333;stroke-width:2;"/>
   <line x1="114.5" y1="752" x2="118.03553390593" y2="748.46446609407" style="stroke:#333;stroke-width:2;"/>
   <line x1="116" y1="101" x2="112.46446609407" y2="104.53553390593" style="stroke:#333;stroke-width:2;"/>
   <line x1="116" y1="101" x2="112.46446609407" y2="97.464466094067" style="stroke:#333;stroke-width:2;"/>
   <line x1="257" y1="181" x2="267" y2="181" style="stroke:#c00;stroke-width:1;"/>
   <line x1="414" y1="107" x2="424" y2="107" style="stroke:#c00;stroke-width:1;"/>
   <line x1="267" y1="181" x2="414" y2="107" style="stroke:#c00;stroke-width:1;"/>
   <line x1="264.5" y1="181" x2="260.96446609407" y2="184.53553390593" style="stroke:#c00;stroke-width:2;"/>
   <line x1="264.5" y1="181" x2="260.96446609407" y2="177.46446609407" style="stroke:#c00;stroke-width:2;"/>
   <line x1="419" y1="107" x2="415.46446609407" y2="110.53553390593" style="stroke:#c00;stroke-width:2;"/>
   <line x1="419" y1="107" x2="415.46446609407" y2="103.46446609407" style="stroke:#c00;stroke-width:2;"/>
   <rect width="86" height="20" x="696" y="59" style="fill:#007;stroke:black;"/>
   <text width="86" height="20" x="701" y="73" style="fill:#fff;" font-family="Arial" font-size="16px"> accesos</text>
   <rect width="86" height="20" x="696" y="79" style="fill:#aea;stroke:black;"/>
   <text width="86" height="20" x="701" y="93" style="fill:black;" font-family="Arial" font-size="16px">id_accesos</text>
   <rect width="86" height="20" x="696" y="99" style="fill:none;stroke:black;"/>
   <text width="86" height="20" x="701" y="113" style="fill:black;" font-family="Arial" font-size="16px">id_rol</text>
   <rect width="86" height="20" x="696" y="119" style="fill:none;stroke:black;"/>
   <text width="86" height="20" x="701" y="133" style="fill:black;" font-family="Arial" font-size="16px">id_modulo</text>
   <rect width="86" height="20" x="696" y="139" style="fill:none;stroke:black;"/>
   <text width="86" height="20" x="701" y="153" style="fill:black;" font-family="Arial" font-size="16px">id_permiso</text>
   <rect width="86" height="20" x="696" y="159" style="fill:none;stroke:black;"/>
   <text width="86" height="20" x="701" y="173" style="fill:black;" font-family="Arial" font-size="16px">status</text>
   <rect width="111" height="20" x="129" y="499" style="fill:#007;stroke:black;"/>
   <text width="111" height="20" x="134" y="513" style="fill:#fff;" font-family="Arial" font-size="16px"> bitacoras</text>
   <rect width="111" height="20" x="129" y="519" style="fill:#aea;stroke:black;"/>
   <text width="111" height="20" x="134" y="533" style="fill:black;" font-family="Arial" font-size="16px">id_bitacora</text>
   <rect width="111" height="20" x="129" y="539" style="fill:none;stroke:black;"/>
   <text width="111" height="20" x="134" y="553" style="fill:black;" font-family="Arial" font-size="16px">id_usuario</text>
   <rect width="111" height="20" x="129" y="559" style="fill:none;stroke:black;"/>
   <text width="111" height="20" x="134" y="573" style="fill:black;" font-family="Arial" font-size="16px">modulo</text>
   <rect width="111" height="20" x="129" y="579" style="fill:none;stroke:black;"/>
   <text width="111" height="20" x="134" y="593" style="fill:black;" font-family="Arial" font-size="16px">accion</text>
   <rect width="111" height="20" x="129" y="599" style="fill:none;stroke:black;"/>
   <text width="111" height="20" x="134" y="613" style="fill:black;" font-family="Arial" font-size="16px">descripcion</text>
   <rect width="111" height="20" x="129" y="619" style="fill:none;stroke:black;"/>
   <text width="111" height="20" x="134" y="633" style="fill:black;" font-family="Arial" font-size="16px">fecha_bitacora</text>
   <rect width="122" height="20" x="694" y="360" style="fill:#007;stroke:black;"/>
   <text width="122" height="20" x="699" y="374" style="fill:#fff;" font-family="Arial" font-size="16px"> modulos</text>
   <rect width="122" height="20" x="694" y="380" style="fill:#aea;stroke:black;"/>
   <text width="122" height="20" x="699" y="394" style="fill:black;" font-family="Arial" font-size="16px">id_modulo</text>
   <rect width="122" height="20" x="694" y="400" style="fill:none;stroke:black;"/>
   <text width="122" height="20" x="699" y="414" style="fill:black;" font-family="Arial" font-size="16px">nombre_modulo</text>
   <rect width="177" height="20" x="123" y="283" style="fill:#007;stroke:black;"/>
   <text width="177" height="20" x="128" y="297" style="fill:#fff;" font-family="Arial" font-size="16px"> notificaciones</text>
   <rect width="177" height="20" x="123" y="303" style="fill:#aea;stroke:black;"/>
   <text width="177" height="20" x="128" y="317" style="fill:black;" font-family="Arial" font-size="16px">id_notificaciones</text>
   <rect width="177" height="20" x="123" y="323" style="fill:none;stroke:black;"/>
   <text width="177" height="20" x="128" y="337" style="fill:black;" font-family="Arial" font-size="16px">id_usuario</text>
   <rect width="177" height="20" x="123" y="343" style="fill:none;stroke:black;"/>
   <text width="177" height="20" x="128" y="357" style="fill:black;" font-family="Arial" font-size="16px">descripcion_notificacion</text>
   <rect width="177" height="20" x="123" y="363" style="fill:none;stroke:black;"/>
   <text width="177" height="20" x="128" y="377" style="fill:black;" font-family="Arial" font-size="16px">enlace</text>
   <rect width="177" height="20" x="123" y="383" style="fill:none;stroke:black;"/>
   <text width="177" height="20" x="128" y="397" style="fill:black;" font-family="Arial" font-size="16px">fecha_notificacion</text>
   <rect width="177" height="20" x="123" y="403" style="fill:none;stroke:black;"/>
   <text width="177" height="20" x="128" y="417" style="fill:black;" font-family="Arial" font-size="16px">status</text>
   <rect width="126" height="20" x="693" y="244" style="fill:#007;stroke:black;"/>
   <text width="126" height="20" x="698" y="258" style="fill:#fff;" font-family="Arial" font-size="16px"> permisos</text>
   <rect width="126" height="20" x="693" y="264" style="fill:#aea;stroke:black;"/>
   <text width="126" height="20" x="698" y="278" style="fill:black;" font-family="Arial" font-size="16px">id_permisos</text>
   <rect width="126" height="20" x="693" y="284" style="fill:none;stroke:black;"/>
   <text width="126" height="20" x="698" y="298" style="fill:black;" font-family="Arial" font-size="16px">nombre_permiso</text>
   <rect width="148" height="20" x="122" y="702" style="fill:#007;stroke:black;"/>
   <text width="148" height="20" x="127" y="716" style="fill:#fff;" font-family="Arial" font-size="16px"> recuperar_codigos</text>
   <rect width="148" height="20" x="122" y="722" style="fill:#aea;stroke:black;"/>
   <text width="148" height="20" x="127" y="736" style="fill:black;" font-family="Arial" font-size="16px">id_recuperar_codigo</text>
   <rect width="148" height="20" x="122" y="742" style="fill:none;stroke:black;"/>
   <text width="148" height="20" x="127" y="756" style="fill:black;" font-family="Arial" font-size="16px">id_usuario</text>
   <rect width="148" height="20" x="122" y="762" style="fill:none;stroke:black;"/>
   <text width="148" height="20" x="127" y="776" style="fill:black;" font-family="Arial" font-size="16px">codigo</text>
   <rect width="148" height="20" x="122" y="782" style="fill:none;stroke:black;"/>
   <text width="148" height="20" x="127" y="796" style="fill:black;" font-family="Arial" font-size="16px">token</text>
   <rect width="148" height="20" x="122" y="802" style="fill:none;stroke:black;"/>
   <text width="148" height="20" x="127" y="816" style="fill:black;" font-family="Arial" font-size="16px">expira</text>
   <rect width="148" height="20" x="122" y="822" style="fill:none;stroke:black;"/>
   <text width="148" height="20" x="127" y="836" style="fill:black;" font-family="Arial" font-size="16px">usado</text>
   <rect width="148" height="20" x="122" y="842" style="fill:none;stroke:black;"/>
   <text width="148" height="20" x="127" y="856" style="fill:black;" font-family="Arial" font-size="16px">created_at</text>
   <rect width="87" height="20" x="424" y="77" style="fill:#007;stroke:black;"/>
   <text width="87" height="20" x="429" y="91" style="fill:#fff;" font-family="Arial" font-size="16px"> roles</text>
   <rect width="87" height="20" x="424" y="97" style="fill:#aea;stroke:black;"/>
   <text width="87" height="20" x="429" y="111" style="fill:black;" font-family="Arial" font-size="16px">id_rol</text>
   <rect width="87" height="20" x="424" y="117" style="fill:none;stroke:black;"/>
   <text width="87" height="20" x="429" y="131" style="fill:black;" font-family="Arial" font-size="16px">nombre_rol</text>
   <rect width="87" height="20" x="424" y="137" style="fill:none;stroke:black;"/>
   <text width="87" height="20" x="429" y="151" style="fill:black;" font-family="Arial" font-size="16px">status</text>
   <rect width="136" height="20" x="121" y="71" style="fill:#007;stroke:black;"/>
   <text width="136" height="20" x="126" y="85" style="fill:#fff;" font-family="Arial" font-size="16px"> usuarios</text>
   <rect width="136" height="20" x="121" y="91" style="fill:#aea;stroke:black;"/>
   <text width="136" height="20" x="126" y="105" style="fill:black;" font-family="Arial" font-size="16px">id_usuario</text>
   <rect width="136" height="20" x="121" y="111" style="fill:none;stroke:black;"/>
   <text width="136" height="20" x="126" y="125" style="fill:black;" font-family="Arial" font-size="16px">nombre_usuario</text>
   <rect width="136" height="20" x="121" y="131" style="fill:none;stroke:black;"/>
   <text width="136" height="20" x="126" y="145" style="fill:black;" font-family="Arial" font-size="16px">password_usuario</text>
   <rect width="136" height="20" x="121" y="151" style="fill:none;stroke:black;"/>
   <text width="136" height="20" x="126" y="165" style="fill:black;" font-family="Arial" font-size="16px">email_usuario</text>
   <rect width="136" height="20" x="121" y="171" style="fill:none;stroke:black;"/>
   <text width="136" height="20" x="126" y="185" style="fill:black;" font-family="Arial" font-size="16px">id_rol_usuario</text>
   <rect width="136" height="20" x="121" y="191" style="fill:none;stroke:black;"/>
   <text width="136" height="20" x="126" y="205" style="fill:black;" font-family="Arial" font-size="16px">img_usuario</text>
   <rect width="136" height="20" x="121" y="211" style="fill:none;stroke:black;"/>
   <text width="136" height="20" x="126" y="225" style="fill:black;" font-family="Arial" font-size="16px">status</text>
</svg>
